<svg width="59" height="57" viewBox="0 0 59 57" fill="none" xmlns="http://www.w3.org/2000/svg">
<path d="M14.6207 0.486816L0.647266 10.5067L12.8065 14.2004L26.937 3.14407L14.6207 0.486816ZM28.9647 4.43277L13.9782 15.8535L20.4617 32.4973L21.5451 31.5509L22.0822 29.5567C21.7186 29.3198 21.407 28.9346 21.1978 28.4635C20.9886 27.9923 20.894 27.4628 20.9294 26.9605C20.9641 26.4729 21.1195 26.0384 21.3716 25.7237C21.6238 25.4089 21.9588 25.2312 22.3255 25.2178C22.4771 25.2122 22.6317 25.2349 22.7851 25.2851C22.9198 25.33 23.0525 25.3958 23.1803 25.4811L24.1883 21.7385C24.2005 21.6936 24.2155 21.6495 24.2331 21.6065L24.2405 21.5902C24.2528 21.5607 24.2664 21.5317 24.2811 21.5033L24.2925 21.4838C24.3071 21.4568 24.3228 21.4303 24.3395 21.4045C24.3606 21.3728 24.3832 21.3422 24.4073 21.3127L24.4157 21.3033C24.4374 21.2772 24.4603 21.252 24.4842 21.2279C24.5105 21.2015 24.538 21.1764 24.5668 21.1526L24.5673 21.1524C24.5863 21.1373 24.6057 21.1228 24.6257 21.109C24.6368 21.1004 24.648 21.0921 24.6594 21.0839C24.6803 21.0706 24.7015 21.0579 24.7232 21.0459C24.7345 21.039 24.7459 21.0324 24.7574 21.0259C24.7758 21.0166 24.7944 21.0078 24.8133 20.9995C24.8292 20.9916 24.8453 20.9841 24.8615 20.9769C24.8799 20.97 24.8984 20.9636 24.917 20.9576C24.9342 20.9512 24.9516 20.9451 24.9691 20.9395C24.9861 20.9348 25.0032 20.9306 25.0204 20.9268C25.0401 20.9214 25.06 20.9166 25.08 20.9123C25.1015 20.9087 25.1231 20.9058 25.1448 20.9034C25.1604 20.901 25.176 20.8989 25.1917 20.8971H25.193L25.1943 20.8967L29.463 20.532C29.5607 20.1674 29.7338 19.86 29.9644 19.6418C30.1949 19.4235 30.4744 19.3023 30.7739 19.2907C30.9256 19.2852 31.0803 19.3078 31.2337 19.358C31.6475 19.4948 32.0325 19.8256 32.3162 20.2882L33.9721 20.1469L28.9648 4.43227L28.9647 4.43277ZM14.4242 5.39838C14.9614 5.40955 15.4166 5.52606 15.7128 5.72815C16.0089 5.93024 16.1277 6.20547 16.049 6.50719C15.9586 6.85396 15.6144 7.20926 15.0921 7.49491C14.5698 7.78056 13.9122 7.97317 13.2639 8.03037C12.9428 8.05869 12.6338 8.05291 12.3543 8.01336C12.0748 7.97381 11.8305 7.90125 11.6351 7.79984C11.4398 7.69844 11.2973 7.57016 11.2158 7.42234C11.1343 7.27452 11.1155 7.11005 11.1603 6.93832C11.2049 6.7666 11.3124 6.59098 11.4766 6.42148C11.6407 6.25198 11.8583 6.09193 12.117 5.95046C12.3756 5.809 12.6702 5.68888 12.9839 5.59699C13.2976 5.50509 13.6243 5.44321 13.9454 5.41488C14.1084 5.40059 14.2687 5.39506 14.424 5.39838H14.4242ZM27.1487 8.38394C27.3003 8.37839 27.4549 8.40102 27.6083 8.45122C28.0583 8.59844 28.473 8.97459 28.7614 9.49694C29.0497 10.0193 29.1881 10.645 29.146 11.2366C29.1251 11.5295 29.0605 11.8052 28.956 12.0479C28.8514 12.2906 28.7089 12.4956 28.5366 12.6512C28.3643 12.8067 28.1655 12.9098 27.9517 12.9545C27.7378 12.9993 27.5131 12.9848 27.2903 12.9118C27.0675 12.839 26.851 12.7092 26.6531 12.5297C26.4552 12.3503 26.2799 12.1249 26.137 11.8662C25.9942 11.6076 25.8868 11.3208 25.8208 11.0223C25.7548 10.7238 25.7315 10.4194 25.7524 10.1265C25.7871 9.63887 25.9425 9.20444 26.1946 8.88973C26.4468 8.57502 26.782 8.39735 27.1487 8.38394ZM0.074707 12.721L6.04049 27.2094L18.004 32.3358L12.1657 16.3943L0.074707 12.7209V12.721ZM18.8493 14.9338C19.001 14.9282 19.1557 14.9507 19.3091 15.0009C19.759 15.1482 20.1737 15.5243 20.4621 16.0467C20.7504 16.569 20.8887 17.1947 20.8465 17.7862C20.8257 18.0791 20.7611 18.3548 20.6566 18.5975C20.552 18.8402 20.4095 19.0452 20.2372 19.2008C20.0649 19.3564 19.8662 19.4595 19.6523 19.5042C19.4385 19.549 19.2138 19.5345 18.991 19.4616C18.541 19.3144 18.1263 18.9382 17.8379 18.4159C17.5495 17.8935 17.4112 17.2678 17.4533 16.6763C17.4881 16.1887 17.6434 15.7543 17.8955 15.4396C18.1476 15.1249 18.4826 14.9473 18.8493 14.9338ZM9.3122 16.5863C9.62687 16.5691 10.0214 16.7555 10.4191 17.1092C10.8168 17.4629 11.1895 17.9587 11.4647 18.5004C11.6105 18.7874 11.7247 19.079 11.8009 19.3586C11.8771 19.6382 11.9137 19.9003 11.9087 20.13C11.9037 20.3597 11.8572 20.5525 11.7717 20.6973C11.6863 20.8421 11.5636 20.9362 11.4107 20.9741C11.1019 21.0506 10.6889 20.8937 10.2624 20.538C9.83592 20.1824 9.43097 19.657 9.13662 19.0776C8.84237 18.4983 8.68275 17.9124 8.69285 17.4487C8.70294 16.9849 8.88192 16.6813 9.19045 16.6045C9.22929 16.5948 9.26984 16.5887 9.3122 16.5863ZM42.7508 21.691L28.5191 22.9069L42.9615 33.0537L57.3831 30.9011L42.7508 21.6907V21.691ZM5.99072 22.9169C6.30539 22.8996 6.69992 23.086 7.09772 23.4397C7.49552 23.7934 7.86822 24.2893 8.14347 24.8311C8.43787 25.4105 8.59757 25.9966 8.58745 26.4605C8.57734 26.9244 8.39822 27.228 8.08951 27.3046C7.78073 27.3811 7.36767 27.2243 6.9412 26.8686C6.51472 26.513 6.10976 25.9877 5.8154 25.4082C5.52107 24.8289 5.36141 24.2428 5.37153 23.779C5.38164 23.3152 5.56071 23.0116 5.86936 22.9349C5.9082 22.9253 5.94888 22.9194 5.99123 22.9171L5.99072 22.9169ZM25.9704 23.9088L20.697 43.4834L35.3748 56.1094L41.3602 34.7216L25.9704 23.909V23.9088ZM42.0917 25.3266C42.4857 25.3339 42.9192 25.393 43.3549 25.4988C43.7905 25.6046 44.2151 25.7539 44.5918 25.9338C44.896 26.0791 45.1623 26.2411 45.3755 26.4106C45.5887 26.5801 45.7445 26.7538 45.8342 26.9217C45.9239 27.0896 45.9456 27.2485 45.8982 27.3893C45.8507 27.53 45.735 27.6499 45.5576 27.7421C45.3802 27.8343 45.1447 27.8971 44.8644 27.9267C44.5842 27.9563 44.2647 27.9522 43.9241 27.9147C43.5836 27.8772 43.2287 27.807 42.8798 27.708C42.5308 27.6091 42.1946 27.4834 41.8904 27.3382C41.276 27.0448 40.8291 26.6895 40.6479 26.3503C40.4667 26.0112 40.5661 25.7161 40.9243 25.5298C41.1965 25.3884 41.6034 25.3176 42.0916 25.3267L42.0917 25.3266ZM58.9251 32.9815L43.579 35.2721L37.6347 56.5134L52.3989 52.4801L58.9251 32.9815ZM35.844 34.3526C36.0233 34.3528 36.2043 34.3931 36.382 34.4723C36.6403 34.5875 36.8874 34.7831 37.1093 35.0478C37.3312 35.3126 37.5235 35.6413 37.6752 36.0152C37.827 36.3892 37.9352 36.801 37.9937 37.2272C38.0523 37.6534 38.0599 38.0857 38.0163 38.4992C37.9282 39.3345 37.6365 40.043 37.2055 40.469C36.7744 40.895 36.2393 41.0036 35.7178 40.7708C35.4596 40.6556 35.2124 40.4601 34.9905 40.1953C34.7686 39.9306 34.5763 39.6019 34.4245 39.228C34.2728 38.854 34.1645 38.4422 34.106 38.0159C34.0475 37.5897 34.0398 37.1575 34.0834 36.7439C34.1561 36.0555 34.3676 35.4489 34.6856 35.0171C35.0035 34.5852 35.4104 34.3518 35.844 34.3526ZM55.4057 35.8298C55.8199 35.8175 56.1632 36.0023 56.3798 36.3541C56.6342 36.7675 56.6945 37.3801 56.5475 38.0571C56.4005 38.7341 56.0581 39.42 55.5958 39.964C55.1334 40.508 54.5889 40.8654 54.0821 40.9578C53.5753 41.0501 53.1477 40.8697 52.8933 40.4564C52.6389 40.043 52.5786 39.4304 52.7256 38.7535C52.8726 38.0765 53.2149 37.3906 53.6772 36.8466C53.9399 36.5376 54.2317 36.2857 54.5311 36.1097C54.8304 35.9336 55.1294 35.838 55.4058 35.8299L55.4057 35.8298ZM46.6845 37.1836C47.0987 37.1714 47.442 37.3562 47.6585 37.7079C47.9129 38.1213 47.9732 38.7339 47.8262 39.4109C47.6792 40.0879 47.3368 40.7739 46.8745 41.3179C46.4121 41.8618 45.8676 42.2192 45.3608 42.3115C44.854 42.4039 44.4264 42.2235 44.172 41.8101C43.9177 41.3966 43.8574 40.7841 44.0044 40.1071C44.1515 39.4301 44.4939 38.7442 44.9562 38.2003C45.2188 37.8913 45.5107 37.6395 45.81 37.4634C46.1092 37.2874 46.4083 37.1917 46.6847 37.1836H46.6845ZM24.5952 38.8727C24.7746 38.873 24.9557 38.9134 25.1335 38.9927C25.3917 39.108 25.6388 39.3035 25.8607 39.5683C26.0826 39.833 26.2749 40.1618 26.4266 40.5357C26.5783 40.9096 26.6866 41.3215 26.7451 41.7477C26.8036 42.1739 26.8112 42.6061 26.7676 43.0197C26.724 43.4333 26.6299 43.8201 26.4908 44.1581C26.3517 44.4961 26.1702 44.7786 25.9568 44.9896C25.7433 45.2005 25.5021 45.3358 25.2468 45.3875C24.9915 45.4393 24.7272 45.4066 24.469 45.2914C24.2108 45.1761 23.9637 44.9806 23.7418 44.7158C23.5199 44.4511 23.3276 44.1224 23.1758 43.7484C23.024 43.3745 22.9158 42.9627 22.8573 42.5365C22.7988 42.1102 22.7911 41.678 22.8347 41.2644C22.9073 40.576 23.1188 39.9694 23.4367 39.5374C23.7546 39.1055 24.1615 38.872 24.5951 38.8726L24.5952 38.8727ZM51.5446 46.6004C51.9586 46.5882 52.3018 46.773 52.5183 47.1247C52.7727 47.538 52.8331 48.1506 52.6861 48.8275C52.5391 49.5045 52.1968 50.1904 51.7345 50.7345C51.2721 51.2784 50.7276 51.6359 50.2208 51.7281C49.714 51.8204 49.2864 51.64 49.032 51.2266C48.7776 50.8132 48.7173 50.2006 48.8643 49.5237C49.0113 48.8467 49.3536 48.1608 49.816 47.6168C50.0786 47.3078 50.3705 47.0559 50.6698 46.8799C50.9691 46.7038 51.2681 46.6082 51.5446 46.6001V46.6004ZM42.6157 49.0744C43.0298 49.0624 43.373 49.2472 43.5894 49.599C43.8438 50.0124 43.9042 50.6249 43.7572 51.3019C43.6102 51.9788 43.2679 52.6648 42.8056 53.2088C42.5766 53.4781 42.3251 53.7045 42.0654 53.875C41.8057 54.0454 41.5428 54.1567 41.2919 54.2024C41.041 54.248 40.8068 54.2272 40.6028 54.1411C40.3989 54.055 40.2291 53.9054 40.1032 53.7006C39.8488 53.2872 39.7885 52.6747 39.9355 51.9977C40.0826 51.3207 40.4249 50.6348 40.8872 50.0908C41.1499 49.7819 41.4417 49.53 41.7411 49.354C42.0404 49.178 42.3394 49.0824 42.6158 49.0743L42.6157 49.0744Z" fill="white"/>
</svg>
